<svg width="40" height="60" xmlns="http://www.w3.org/2000/svg" xmlns:xlink="http://www.w3.org/1999/xlink">
 <!-- Created with SVG-edit - http://svg-edit.googlecode.com/ -->
 <g>
  <title>Layer 1</title>
  <g id="svg_5">
   <path id="svg_4" d="m15.465734,6.216492c0,-3.252103 2.268384,-5.781518 4.949212,-5.781518c2.783943,0 4.949224,2.64986 4.949224,5.781518s-2.268393,5.781518 -4.949224,5.781518c-2.78393,0 -4.949212,-2.529414 -4.949212,-5.781518zm22.477695,49.383796c-0.927982,0.36134 -2.062176,0.120453 -2.680836,-1.084038c-1.752834,-3.252094 -4.536777,-9.75631 -4.846096,-10.478992c-0.412436,-0.963593 -0.92798,-1.686287 -2.06217,-1.806725c0,0.361332 0,0.722683 0,1.084023c0,8.913177 -6.289642,16.260525 -13.919682,16.260525s-13.919682,-7.347347 -13.919682,-16.260525c0,-6.985996 3.71192,-12.887964 8.970456,-15.176483c0,-0.60224 0,-1.204483 0,-1.806721c0,-2.168072 0.82488,-5.661074 1.443526,-7.708693c0.927981,-3.372551 2.165283,-4.215688 4.949224,-4.215688c3.402587,0 5.464757,2.649865 5.464757,5.17928s-0.824869,5.058821 -0.824869,7.226892c0,1.686277 0.309322,3.613447 0.824869,5.781517s1.443525,2.770309 3.402586,2.770309c0.412436,0 4.743002,0 5.464762,0c1.649736,0 2.680832,1.44537 3.299484,2.890766c0.618645,1.565815 3.815022,10.238094 5.361645,14.212894c0.61866,1.08403 0,2.770309 -0.927975,3.131657zm-11.651285,-12.285732c0,-0.36134 0,-0.722691 0,-1.204475c-2.474607,0 -6.598951,0 -9.589102,0c-3.918134,0 -4.846114,-2.770321 -5.670984,-5.420177c-0.618656,-2.047623 -1.031092,-3.733898 -1.340414,-6.142862c-4.227456,2.168066 -7.114498,6.985998 -7.114498,12.647081c0,7.588242 5.361648,13.851543 11.857497,13.851543c6.598962,0.120445 11.857499,-6.142872 11.857499,-13.73111l0.000002,0z" fill="#ff0000"/>
  </g>
  <image xlink:href="images/logo.png" id="svg_6" y="239" x="69.333344"/>
 </g>
</svg>
