<svg width="40" height="60.00000000000001" xmlns="http://www.w3.org/2000/svg" xmlns:xlink="http://www.w3.org/1999/xlink">
 <!-- Created with SVG-edit - http://svg-edit.googlecode.com/ -->
 <g>
  <title>Layer 1</title>
  <g id="svg_5">
   <path fill="#ffd800" d="m15.465734,6.216492c0,-3.252103 2.268383,-5.781518 4.949213,-5.781518c2.783941,0 4.949223,2.64986 4.949223,5.781518s-2.268393,5.781518 -4.949223,5.781518c-2.78393,0 -4.949213,-2.529414 -4.949213,-5.781518zm22.477697,49.383796c-0.927982,0.36134 -2.06218,0.120453 -2.68084,-1.084038c-1.752831,-3.252094 -4.536776,-9.75631 -4.846094,-10.478992c-0.412436,-0.963593 -0.92798,-1.686287 -2.06217,-1.806725c0,0.361332 0,0.722683 0,1.084023c0,8.913177 -6.289642,16.260525 -13.919683,16.260525s-13.919681,-7.347347 -13.919681,-16.260525c0,-6.985996 3.71192,-12.887964 8.970456,-15.176483c0,-0.60224 0,-1.204483 0,-1.806721c0,-2.168072 0.82488,-5.661074 1.443526,-7.708693c0.92798,-3.372552 2.165282,-4.215689 4.949224,-4.215689c3.402587,0 5.464757,2.649864 5.464757,5.179279s-0.824869,5.058823 -0.824869,7.226892c0,1.686277 0.309322,3.613447 0.824869,5.781519s1.443525,2.770306 3.402586,2.770306c0.412436,0 4.743002,0 5.464762,0c1.649736,0 2.680834,1.445374 3.299486,2.890766c0.618645,1.565815 3.815022,10.238094 5.361645,14.212894c0.61866,1.08403 0,2.770309 -0.927975,3.131657l0,0.000004zm-11.651287,-12.285732c0,-0.36134 0,-0.722691 0,-1.204475c-2.474607,0 -6.598951,0 -9.589102,0c-3.918134,0 -4.846114,-2.770321 -5.670984,-5.420177c-0.618656,-2.047623 -1.031092,-3.733898 -1.340414,-6.14286c-4.227456,2.168068 -7.114498,6.986 -7.114498,12.647079c0,7.588245 5.361648,13.851547 11.857497,13.851547c6.598962,0.120445 11.857499,-6.142872 11.857499,-13.731113l0.000002,0z" id="svg_4"/>
  </g>
  <image x="69.333344" y="239" id="svg_6" xlink:href="images/logo.png"/>
 </g>
</svg>
