<svg xmlns="http://www.w3.org/2000/svg" xmlns:xlink="http://www.w3.org/1999/xlink" version="1.1" viewBox="0 0 50 50" width="256px" height="256px">
<path fill="#333333" d="M16.9,45.2c0,2.5-1.9,4.4-4.4,4.4s-4.4-1.9-4.4-4.4s1.9-4.4,4.4-4.4S16.9,42.7,16.9,45.2z M39.4,40.8  c-2.5,0-4.4,1.9-4.4,4.4s1.9,4.4,4.4,4.4c2.5,0,4.4-1.9,4.4-4.4S41.9,40.8,39.4,40.8z M28.5,11.5c0-0.6,0-3.1,0-3.8  c0-1.9-1.5-3.5-3.5-3.5s-3.5,1.5-3.5,3.5c0,0.8,0,3.3,0,3.8H28.5z M50,34.6c0,1.7,0,7.7,0,7.7c0,1.2-0.8,1.9-1.9,1.9h-1.9  c-0.4-3.3-3.3-5.8-6.7-5.8s-6.2,2.5-6.7,5.8H19.2c-0.4-3.3-3.3-6-6.7-6s-6.3,2.7-6.7,6H1.9c-1.2,0-1.9-0.8-1.9-1.9V15.4  c0-1.2,0.8-1.9,1.9-1.9h31.7c1.3,0,1.9,0.8,2.9,1.9l11.9,15.4C48.5,30.8,50,32.9,50,34.6z M23.5,25c0-4.4-3.7-8.1-8.1-8.1  S7.3,20.6,7.3,25s3.7,8.1,8.1,8.1S23.5,29.4,23.5,25z M44.4,30.8c0-0.4-0.4-1.2-0.8-1.5l-7.3-9.4c0,0-0.4-0.4-0.8-0.4h-4.8V31h13.7  V30.8z M17.3,19.2h-3.8v3.8H9.6v3.8h3.8v3.8h3.8v-3.8h3.8v-3.8h-3.8V19.2z"></path>
</svg>
